{
  "accessors": [
    {
      "bufferView": 2,
      "componentType": 5126,
      "count": 264,
      "max": [
        2.7010560035705566,
        1.8810964822769165,
        -5.189730167388916
      ],
      "min": [
        -2.7010560035705566,
        -1.0919045209884644,
        -8.5283994674682617
      ],
      "type": "VEC3"
    },
    {
      "bufferView": 2,
      "byteOffset": 3168,
      "componentType": 5126,
      "count": 264,
      "max": [
        0.99909734725952148,
        0.97839272022247314,
        0.99996364116668701
      ],
      "min": [
        -0.99909734725952148,
        -0.97851747274398804,
        -0.99960780143737793
      ],
      "type": "VEC3"
    },
    {
      "bufferView": 0,
      "componentType": 5125,
      "count": 1008,
      "max": [
        263
      ],
      "min": [
        0
      ],
      "type": "SCALAR"
    },
    {
      "bufferView": 2,
      "byteOffset": 6336,
      "componentType": 5126,
      "count": 244,
      "max": [
        2.4649043083190918,
        1.89604651927948,
        -5.189730167388916
      ],
      "min": [
        -2.4649043083190918,
        -1.1148378849029541,
        -8.5283994674682617
      ],
      "type": "VEC3"
    },
    {
      "bufferView": 2,
      "byteOffset": 9264,
      "componentType": 5126,
      "count": 244,
      "max": [
        0.98447114229202271,
        0.97839272022247314,
        0.99996364116668701
      ],
      "min": [
        -0.98447114229202271,
        -0.97851747274398804,
        -0.99960780143737793
      ],
      "type": "VEC3"
    },
    {
      "bufferView": 0,
      "byteOffset": 4032,
      "componentType": 5125,
      "count": 1008,
      "max": [
        243
      ],
      "min": [
        0
      ],
      "type": "SCALAR"
    },
    {
      "bufferView": 2,
      "byteOffset": 12192,
      "componentType": 5126,
      "count": 112,
      "max": [
        2.4376311302185059,
        0.48328429460525513,
        -7.1880645751953125
      ],
      "min": [
        -2.4376311302185059,
        -1.0169296264648438,
        -7.7643208503723145
      ],
      "type": "VEC3"
    },
    {
      "bufferView": 2,
      "byteOffset": 13536,
      "componentType": 5126,
      "count": 112,
      "max": [
        0.94513541460037231,
        0.83762168884277344,
        0.8742145299911499
      ],
      "min": [
        -0.94513541460037231,
        -0.76828944683074951,
        -0.97689211368560791
      ],
      "type": "VEC3"
    },
    {
      "bufferView": 0,
      "byteOffset": 8064,
      "componentType": 5125,
      "count": 480,
      "max": [
        111
      ],
      "min": [
        0
      ],
      "type": "SCALAR"
    },
    {
      "bufferView": 2,
      "byteOffset": 14880,
      "componentType": 5126,
      "count": 233,
      "max": [
        2.5407872200012207,
        1.411162257194519,
        2.0361342430114746
      ],
      "min": [
        -2.5407872200012207,
        -1.3287793397903442,
        -5.7768898010253906
      ],
      "type": "VEC3"
    },
    {
      "bufferView": 2,
      "byteOffset": 17676,
      "componentType": 5126,
      "count": 233,
      "max": [
        0.99964034557342529,
        0.99978911876678467,
        0.96166777610778809
      ],
      "min": [
        -0.99964034557342529,
        -0.99939942359924316,
        -0.99968373775482178
      ],
      "type": "VEC3"
    },
    {
      "bufferView": 3,
      "componentType": 5126,
      "count": 233,
      "max": [
        1,
        1,
        1,
        1
      ],
      "min": [
        1,
        1,
        1,
        1
      ],
      "type": "VEC4"
    },
    {
      "bufferView": 0,
      "byteOffset": 9984,
      "componentType": 5125,
      "count": 1212,
      "max": [
        232
      ],
      "min": [
        0
      ],
      "type": "SCALAR"
    },
    {
      "bufferView": 2,
      "byteOffset": 20472,
      "componentType": 5126,
      "count": 84,
      "max": [
        2.7065303325653076,
        1.3435816764831543,
        2.1831722259521484
      ],
      "min": [
        -2.7065303325653076,
        -1.1904367208480835,
        -1.1340175867080688
      ],
      "type": "VEC3"
    },
    {
      "bufferView": 2,
      "byteOffset": 21480,
      "componentType": 5126,
      "count": 84,
      "max": [
        0.96698874235153198,
        0.85142672061920166,
        0.96166777610778809
      ],
      "min": [
        -0.96698874235153198,
        -0.97708767652511597,
        -0.94149410724639893
      ],
      "type": "VEC3"
    },
    {
      "bufferView": 3,
      "byteOffset": 3728,
      "componentType": 5126,
      "count": 84,
      "max": [
        1,
        1,
        1,
        1
      ],
      "min": [
        1,
        1,
        1,
        1
      ],
      "type": "VEC4"
    },
    {
      "bufferView": 0,
      "byteOffset": 14832,
      "componentType": 5125,
      "count": 300,
      "max": [
        83
      ],
      "min": [
        0
      ],
      "type": "SCALAR"
    },
    {
      "bufferView": 2,
      "byteOffset": 22488,
      "componentType": 5126,
      "count": 48,
      "max": [
        3.283656120300293,
        0.3147779107093811,
        -1.7041611671447754
      ],
      "min": [
        -3.283656120300293,
        -0.7509690523147583,
        -2.4277229309082031
      ],
      "type": "VEC3"
    },
    {
      "bufferView": 2,
      "byteOffset": 23064,
      "componentType": 5126,
      "count": 48,
      "max": [
        0.97486156225204468,
        0.66042637825012207,
        0.97580569982528687
      ],
      "min": [
        -0.97486156225204468,
        -0.63270342350006104,
        -0.96992528438568115
      ],
      "type": "VEC3"
    },
    {
      "bufferView": 0,
      "byteOffset": 16032,
      "componentType": 5125,
      "count": 288,
      "max": [
        47
      ],
      "min": [
        0
      ],
      "type": "SCALAR"
    },
    {
      "bufferView": 2,
      "byteOffset": 23640,
      "componentType": 5126,
      "count": 23,
      "max": [
        0.61799997091293335,
        0.67823636531829834,
        3.1930556297302246
      ],
      "min": [
        -0.61799997091293335,
        0.33220025897026062,
        2.8066792488098145
      ],
      "type": "VEC3"
    },
    {
      "bufferView": 2,
      "byteOffset": 23916,
      "componentType": 5126,
      "count": 23,
      "max": [
        0.85539031028747559,
        0.94280612468719482,
        0.92663949728012085
      ],
      "min": [
        -0.85539031028747559,
        -0.94268172979354858,
        -0.94023293256759644
      ],
      "type": "VEC3"
    },
    {
      "bufferView": 0,
      "byteOffset": 17184,
      "componentType": 5125,
      "count": 120,
      "max": [
        22
      ],
      "min": [
        0
      ],
      "type": "SCALAR"
    },
    {
      "bufferView": 2,
      "byteOffset": 24192,
      "componentType": 5126,
      "count": 58,
      "max": [
        1.928231954574585,
        1.0000001192092896,
        -1.5760643482208252
      ],
      "min": [
        -1.928231954574585,
        -1.1763154268264771,
        -4.2182822227478027
      ],
      "type": "VEC3"
    },
    {
      "bufferView": 2,
      "byteOffset": 24888,
      "componentType": 5126,
      "count": 58,
      "max": [
        0.98122793436050415,
        0.99762290716171265,
        0.49227985739707947
      ],
      "min": [
        -0.98122793436050415,
        -0.99917721748352051,
        -0.99976265430450439
      ],
      "type": "VEC3"
    },
    {
      "bufferView": 3,
      "byteOffset": 5072,
      "componentType": 5126,
      "count": 58,
      "max": [
        0,
        0,
        0,
        1
      ],
      "min": [
        0,
        0,
        0,
        1
      ],
      "type": "VEC4"
    },
    {
      "bufferView": 0,
      "byteOffset": 17664,
      "componentType": 5125,
      "count": 264,
      "max": [
        57
      ],
      "min": [
        0
      ],
      "type": "SCALAR"
    },
    {
      "bufferView": 2,
      "byteOffset": 25584,
      "componentType": 5126,
      "count": 564,
      "max": [
        3.4026281833648682,
        1.5352439880371094,
        4.1868014335632324
      ],
      "min": [
        -3.4026281833648682,
        -1.0848327875137329,
        -8.4507913589477539
      ],
      "type": "VEC3"
    },
    {
      "bufferView": 2,
      "byteOffset": 32352,
      "componentType": 5126,
      "count": 564,
      "max": [
        0.9994887113571167,
        0.99967217445373535,
        0.95174145698547363
      ],
      "min": [
        -0.9994887113571167,
        -0.99967217445373535,
        -0.99973380565643311
      ],
      "type": "VEC3"
    },
    {
      "bufferView": 3,
      "byteOffset": 6000,
      "componentType": 5126,
      "count": 564,
      "max": [
        0,
        0,
        0,
        1
      ],
      "min": [
        0,
        0,
        0,
        1
      ],
      "type": "VEC4"
    },
    {
      "bufferView": 0,
      "byteOffset": 18720,
      "componentType": 5125,
      "count": 3252,
      "max": [
        563
      ],
      "min": [
        0
      ],
      "type": "SCALAR"
    },
    {
      "bufferView": 2,
      "byteOffset": 39120,
      "componentType": 5126,
      "count": 12,
      "max": [
        0.48616138100624084,
        0.62290173768997192,
        2.9792068004608154
      ],
      "min": [
        -0.48616138100624084,
        0.39416372776031494,
        2.7080535888671875
      ],
      "type": "VEC3"
    },
    {
      "bufferView": 2,
      "byteOffset": 39264,
      "componentType": 5126,
      "count": 12,
      "max": [
        0.80539649724960327,
        0.81836229562759399,
        0.046175610274076462
      ],
      "min": [
        -0.80539649724960327,
        0.54210907220840454,
        -0.41481694579124451
      ],
      "type": "VEC3"
    },
    {
      "bufferView": 3,
      "byteOffset": 15024,
      "componentType": 5126,
      "count": 12,
      "max": [
        0.85211730003356934,
        0.79594814777374268,
        -0.06992628425359726,
        1
      ],
      "min": [
        -0.85211730003356934,
        0.51859325170516968,
        -0.160821333527565,
        -1
      ],
      "type": "VEC4"
    },
    {
      "bufferView": 1,
      "componentType": 5126,
      "count": 12,
      "max": [
        0.83391571044921875,
        0.86776965856552124
      ],
      "min": [
        -0.23057813942432404,
        0.22955553233623505
      ],
      "type": "VEC2"
    },
    {
      "bufferView": 0,
      "byteOffset": 31728,
      "componentType": 5125,
      "count": 24,
      "max": [
        11
      ],
      "min": [
        0
      ],
      "type": "SCALAR"
    },
    {
      "bufferView": 2,
      "byteOffset": 39408,
      "componentType": 5126,
      "count": 3320,
      "max": [
        2.0972094535827637,
        1.7355384826660156,
        5.1369462013244629
      ],
      "min": [
        -1.9493235349655151,
        -1.3805270195007324,
        2.607508659362793
      ],
      "type": "VEC3"
    },
    {
      "bufferView": 2,
      "byteOffset": 79248,
      "componentType": 5126,
      "count": 3320,
      "max": [
        0.99794185161590576,
        0.99994885921478271,
        0.99696129560470581
      ],
      "min": [
        -0.99932861328125,
        -0.9943382740020752,
        -0.99997508525848389
      ],
      "type": "VEC3"
    },
    {
      "bufferView": 0,
      "byteOffset": 31824,
      "componentType": 5125,
      "count": 19908,
      "max": [
        3319
      ],
      "min": [
        0
      ],
      "type": "SCALAR"
    }
  ],
  "asset": {
    "extras": {
      "author": "Théo Lerbeil (https://sketchfab.com/supertheo)",
      "license": "CC-BY-4.0 (http://creativecommons.org/licenses/by/4.0/)",
      "source": "https://sketchfab.com/models/eccb3b63487141a2b97f40223e4fc939",
      "title": "Son Goku Lowpoly"
    },
    "generator": "Sketchfab-3.18.6",
    "version": "2.0"
  },
  "bufferViews": [
    {
      "buffer": 0,
      "byteLength": 111456,
      "byteOffset": 0,
      "name": "floatBufferViews",
      "target": 34963
    },
    {
      "buffer": 0,
      "byteLength": 96,
      "byteOffset": 111456,
      "byteStride": 8,
      "name": "floatBufferViews",
      "target": 34962
    },
    {
      "buffer": 0,
      "byteLength": 119088,
      "byteOffset": 111552,
      "byteStride": 12,
      "name": "floatBufferViews",
      "target": 34962
    },
    {
      "buffer": 0,
      "byteLength": 15216,
      "byteOffset": 230640,
      "byteStride": 16,
      "name": "floatBufferViews",
      "target": 34962
    }
  ],
  "buffers": [
    {
      "byteLength": 245856,
      "uri": "scene.bin"
    }
  ],
  "images": [
    {
      "uri": "textures/Material.004_baseColor.png"
    }
  ],
  "materials": [
    {
      "doubleSided": true,
      "emissiveFactor": [
        0,
        0,
        0
      ],
      "name": "ceinture",
      "pbrMetallicRoughness": {
        "baseColorFactor": [
          0.019791604399999999,
          0.0099876155999999994,
          0.1790150717,
          1
        ],
        "metallicFactor": 0,
        "roughnessFactor": 0.95770514949999996
      }
    },
    {
      "doubleSided": true,
      "emissiveFactor": [
        0,
        0,
        0
      ],
      "name": "Material.002",
      "pbrMetallicRoughness": {
        "baseColorFactor": [
          0.36926983470000002,
          0,
          0,
          1
        ],
        "metallicFactor": 0,
        "roughnessFactor": 0.95770514949999996
      }
    },
    {
      "doubleSided": true,
      "emissiveFactor": [
        0,
        0,
        0
      ],
      "name": "Material.001",
      "pbrMetallicRoughness": {
        "baseColorFactor": [
          0.92135604699999996,
          1,
          0,
          1
        ],
        "metallicFactor": 0,
        "roughnessFactor": 0.95770514949999996
      }
    },
    {
      "doubleSided": true,
      "name": "dogi",
      "pbrMetallicRoughness": {
        "baseColorFactor": [
          0.53992023219999996,
          0,
          0,
          1
        ],
        "metallicFactor": 0,
        "roughnessFactor": 0.95770514949999996
      }
    },
    {
      "doubleSided": true,
      "emissiveFactor": [
        0,
        0,
        0
      ],
      "name": "hair",
      "pbrMetallicRoughness": {
        "baseColorFactor": [
          0,
          0,
          0,
          1
        ],
        "metallicFactor": 0,
        "roughnessFactor": 0.95770514949999996
      }
    },
    {
      "doubleSided": true,
      "emissiveFactor": [
        0,
        0,
        0
      ],
      "name": "Material.003",
      "pbrMetallicRoughness": {
        "baseColorFactor": [
          0.97998638100000002,
          0.017461933400000001,
          0.19525490470000001,
          1
        ],
        "metallicFactor": 0,
        "roughnessFactor": 0.95770514949999996
      }
    },
    {
      "doubleSided": true,
      "emissiveFactor": [
        0,
        0,
        0
      ],
      "name": "skin",
      "pbrMetallicRoughness": {
        "baseColorFactor": [
          0.45941442850000003,
          0.45494022290000002,
          0.24540505109999999,
          1
        ],
        "metallicFactor": 0,
        "roughnessFactor": 0.95770514949999996
      }
    },
    {
      "doubleSided": true,
      "emissiveFactor": [
        0,
        0,
        0
      ],
      "name": "Material.004",
      "pbrMetallicRoughness": {
        "baseColorFactor": [
          1,
          1,
          1,
          1
        ],
        "baseColorTexture": {
          "index": 0,
          "texCoord": 0
        },
        "metallicFactor": 0,
        "roughnessFactor": 0.95770514949999996
      }
    }
  ],
  "meshes": [
    {
      "name": "boots_ceinture_0",
      "primitives": [
        {
          "attributes": {
            "NORMAL": 1,
            "POSITION": 0
          },
          "indices": 2,
          "material": 0,
          "mode": 4
        }
      ]
    },
    {
      "name": "boots_Material.002_0",
      "primitives": [
        {
          "attributes": {
            "NORMAL": 4,
            "POSITION": 3
          },
          "indices": 5,
          "material": 1,
          "mode": 4
        }
      ]
    },
    {
      "name": "boots_Material.001_0",
      "primitives": [
        {
          "attributes": {
            "NORMAL": 7,
            "POSITION": 6
          },
          "indices": 8,
          "material": 2,
          "mode": 4
        }
      ]
    },
    {
      "name": "dogi_dogi_0",
      "primitives": [
        {
          "attributes": {
            "COLOR_0": 11,
            "NORMAL": 10,
            "POSITION": 9
          },
          "indices": 12,
          "material": 3,
          "mode": 4
        }
      ]
    },
    {
      "name": "dogi_ceinture_0",
      "primitives": [
        {
          "attributes": {
            "COLOR_0": 15,
            "NORMAL": 14,
            "POSITION": 13
          },
          "indices": 16,
          "material": 0,
          "mode": 4
        }
      ]
    },
    {
      "name": "gants_ceinture_0",
      "primitives": [
        {
          "attributes": {
            "NORMAL": 18,
            "POSITION": 17
          },
          "indices": 19,
          "material": 0,
          "mode": 4
        }
      ]
    },
    {
      "name": "goku.001_hair_0",
      "primitives": [
        {
          "attributes": {
            "NORMAL": 21,
            "POSITION": 20
          },
          "indices": 22,
          "material": 4,
          "mode": 4
        }
      ]
    },
    {
      "name": "goku_Material.003_0",
      "primitives": [
        {
          "attributes": {
            "NORMAL": 24,
            "POSITION": 23,
            "TANGENT": 25
          },
          "indices": 26,
          "material": 5,
          "mode": 4
        }
      ]
    },
    {
      "name": "goku_skin_0",
      "primitives": [
        {
          "attributes": {
            "NORMAL": 28,
            "POSITION": 27,
            "TANGENT": 29
          },
          "indices": 30,
          "material": 6,
          "mode": 4
        }
      ]
    },
    {
      "name": "goku_Material.004_0",
      "primitives": [
        {
          "attributes": {
            "NORMAL": 32,
            "POSITION": 31,
            "TANGENT": 33,
            "TEXCOORD_0": 34
          },
          "indices": 35,
          "material": 7,
          "mode": 4
        }
      ]
    },
    {
      "name": "hair_hair_0",
      "primitives": [
        {
          "attributes": {
            "NORMAL": 37,
            "POSITION": 36
          },
          "indices": 38,
          "material": 4,
          "mode": 4
        }
      ]
    }
  ],
  "nodes": [
    {
      "children": [
        1
      ],
      "name": "RootNode (gltf orientation matrix)",
      "rotation": [
        -0.70710678118654746,
        -0,
        -0,
        0.70710678118654757
      ]
    },
    {
      "children": [
        2
      ],
      "name": "RootNode (model correction matrix)"
    },
    {
      "children": [
        3
      ],
      "matrix": [
        1,
        0,
        0,
        0,
        0,
        0,
        1,
        0,
        0,
        -1,
        0,
        0,
        0,
        0,
        0,
        1
      ],
      "name": "3f55161184654991b8ff23e18fe749e9.fbx"
    },
    {
      "children": [
        4,
        8,
        11,
        13,
        15,
        19
      ],
      "name": "RootNode"
    },
    {
      "children": [
        5,
        6,
        7
      ],
      "matrix": [
        -67.993125915526562,
        8.3267549652246997e-15,
        -1.0266676380774907e-05,
        0,
        -1.0266676380774877e-05,
        5.1333382164191079e-06,
        67.993125915526363,
        0,
        7.8343925977642152e-13,
        67.993125915527145,
        -5.1333382013216011e-06,
        0,
        -7.4334917068481445,
        129.27915954589844,
        -15.650653839111328,
        1
      ],
      "name": "boots"
    },
    {
      "mesh": 0,
      "name": "boots_ceinture_0"
    },
    {
      "mesh": 1,
      "name": "boots_Material.002_0"
    },
    {
      "mesh": 2,
      "name": "boots_Material.001_0"
    },
    {
      "children": [
        9,
        10
      ],
      "matrix": [
        -67.993125915526562,
        8.3267549652246997e-15,
        -1.0266676380774907e-05,
        0,
        -1.0266676380774877e-05,
        5.1333382164191079e-06,
        67.993125915526363,
        0,
        7.8343925977642152e-13,
        67.993125915527145,
        -5.1333382013216011e-06,
        0,
        -7.4335098266601562,
        129.27915954589844,
        -15.650653839111328,
        1
      ],
      "name": "dogi"
    },
    {
      "mesh": 3,
      "name": "dogi_dogi_0"
    },
    {
      "mesh": 4,
      "name": "dogi_ceinture_0"
    },
    {
      "children": [
        12
      ],
      "matrix": [
        -67.993125915526562,
        8.3267549652246997e-15,
        -1.0266676380774907e-05,
        0,
        -1.0266676380774877e-05,
        5.1333382164191079e-06,
        67.993125915526363,
        0,
        7.8343925977642152e-13,
        67.993125915527145,
        -5.1333382013216011e-06,
        0,
        -7.4334917068481445,
        129.27915954589844,
        -15.650653839111328,
        1
      ],
      "name": "gants"
    },
    {
      "mesh": 5,
      "name": "gants_ceinture_0"
    },
    {
      "children": [
        14
      ],
      "matrix": [
        -67.993125915526562,
        8.3267549652246997e-15,
        -1.0266676380774907e-05,
        0,
        -1.0266676380774877e-05,
        5.1333382164191079e-06,
        67.993125915526363,
        0,
        7.8343925977642152e-13,
        67.993125915527145,
        -5.1333382013216011e-06,
        0,
        -7.4334917068481445,
        129.27915954589844,
        -17.32177734375,
        1
      ],
      "name": "goku.001"
    },
    {
      "mesh": 6,
      "name": "goku.001_hair_0"
    },
    {
      "children": [
        16,
        17,
        18
      ],
      "matrix": [
        -67.993125915526562,
        8.3267549652246997e-15,
        -1.0266676380774907e-05,
        0,
        -1.0266676380774877e-05,
        5.1333382164191079e-06,
        67.993125915526363,
        0,
        7.8343925977642152e-13,
        67.993125915527145,
        -5.1333382013216011e-06,
        0,
        -7.4334917068481445,
        129.27915954589844,
        -15.650653839111328,
        1
      ],
      "name": "goku"
    },
    {
      "mesh": 7,
      "name": "goku_Material.003_0"
    },
    {
      "mesh": 8,
      "name": "goku_skin_0"
    },
    {
      "mesh": 9,
      "name": "goku_Material.004_0"
    },
    {
      "children": [
        20
      ],
      "matrix": [
        -65.811195373534403,
        -3.2954600747884522e-13,
        -9.9372140350108197e-06,
        0,
        -1.0444793869464419e-05,
        5.2223969612154907e-06,
        69.172744750975568,
        0,
        4.3165985524961392e-13,
        67.526832580566207,
        -5.0981340338834042e-06,
        0,
        -7.4334917068481445,
        133.173095703125,
        -15.650653839111328,
        1
      ],
      "name": "hair"
    },
    {
      "mesh": 10,
      "name": "hair_hair_0"
    }
  ],
  "samplers": [
    {
      "magFilter": 9729,
      "minFilter": 9987,
      "wrapS": 10497,
      "wrapT": 10497
    }
  ],
  "scene": 0,
  "scenes": [
    {
      "name": "OSG_Scene",
      "nodes": [
        0
      ]
    }
  ],
  "textures": [
    {
      "sampler": 0,
      "source": 0
    }
  ]
}

